# xmcd CD database file
#
# Track frame offsets:
#	150
#	13575
#	31572
#	52095
#	66485
#	78557
#	97310
#	111847
#	132762
#	150995
#	167035
#	186827
#
# Disc length: 2764 seconds
#
# Revision: 1
# Processed by: cddbd v1.5.2PL0 Copyright (c) Steve Scherf et al.
# Submitted via: CDex 1.70beta2
#
DISCID=9b0aca0c
DTITLE=Slobo Horo - Divane
DYEAR=2000
DGENRE=Ethnic
TTITLE0=Džingo
TTITLE1=Stojne
TTITLE2=Mente
TTITLE3=Hora Lăutărească
TTITLE4=Osman Aga
TTITLE5=Semah
TTITLE6=Dostlug Rägsi
TTITLE7=Divane Gönlüm
TTITLE8=Zbogom
TTITLE9=Sâhâne Götzler
TTITLE10=Säkhra Gözeli
TTITLE11=Emin Duraku
EXTD=YEAR: 2000
EXTT0=
EXTT1=
EXTT2=
EXTT3=
EXTT4=
EXTT5=
EXTT6=
EXTT7=
EXTT8=
EXTT9=
EXTT10=
EXTT11=
PLAYORDER=
